<svg width="16" height="24" viewBox="0 0 16 24" fill="none" xmlns="http://www.w3.org/2000/svg">
<path d="M8.00023 0C3.58879 0 0 3.58875 0 8.00016C0 9.32438 0.330941 10.6373 0.960478 11.8017L7.56242 23.7422C7.65054 23.9016 7.81789 24 7.99977 24C8.18164 24 8.34946 23.9016 8.43711 23.7422L15.0419 11.798C15.6691 10.6373 16 9.32438 16 8.00016C16 3.58875 12.4112 0 8.00023 0ZM8.00023 12C5.79474 12 4.00035 10.2056 4.00035 8.00016C4.00035 5.79469 5.79474 4.00031 8.00023 4.00031C10.2057 4.00031 12.0001 5.79422 12.0001 8.00016C12.0001 10.2061 10.2057 12 8.00023 12Z" fill="white"/>
</svg>
